<svg width="1169" height="1295" viewBox="0 0 1169 1295" fill="none" xmlns="http://www.w3.org/2000/svg">
<path d="M725.899 12.4716C738.319 14.8568 750.742 17.2246 763.168 19.5805C915.246 48.8173 915.245 48.8173 953.528 62.1608C955.675 66.2601 957.821 70.3595 960.032 74.5831C975.31 78.8645 975.31 78.8645 992.957 81.5706C998.935 82.6115 1004.91 83.6523 1011.07 84.7247C1015.69 85.4773 1020.31 86.2299 1025.07 87.0054C1025.07 91.1047 1025.07 95.2041 1025.07 99.4276C1030.46 100.973 1035.85 102.518 1041.4 104.11C1067.25 112.929 1090.71 124.023 1114.9 136.306C1119.32 138.464 1123.75 140.622 1128.3 142.845C1160.87 159.31 1160.87 159.31 1168.15 180.173C1171.94 221.695 1163.04 245.54 1141.32 281.104C1135.86 290.332 1130.42 299.568 1124.99 308.811C1122.33 313.309 1119.67 317.806 1116.92 322.44C1106.79 340.479 1098.84 359.306 1090.51 378.153C1080.32 398.228 1075.4 407.66 1054.44 417.797C1036.86 422.407 1036.86 422.407 1020.32 424.736C1004.77 427.598 1004.77 427.598 993.973 439.463C984.654 455.923 983.632 466.293 984.014 484.907C984.04 490.231 984.065 495.555 984.091 501.041C985.127 517.244 985.127 517.244 999.054 534.208C996.716 562.87 986.957 587.606 975.885 614.176C972.925 621.334 969.966 628.492 966.917 635.867C964.645 641.263 962.373 646.659 960.032 652.219C955.74 652.219 951.447 652.219 947.025 652.219C945.308 657.467 943.592 662.714 941.823 668.12C933.638 690.524 923.796 711.792 913.185 733.207C911.142 737.368 909.099 741.528 906.993 745.815C900.31 759.4 893.59 772.969 886.865 786.535C884.553 791.22 882.24 795.904 879.857 800.731C844.998 871.319 809.008 941.269 772.109 1010.91C740.454 1070.91 710.698 1131.66 681.499 1192.78C678.218 1199.63 674.938 1206.47 671.558 1213.53C668.697 1219.54 665.837 1225.56 662.89 1231.76C654.39 1248.43 645.763 1264.2 634.847 1279.54C630.555 1279.54 626.262 1279.54 621.84 1279.54C621.84 1283.64 621.84 1287.74 621.84 1291.97C611.694 1292.81 601.525 1293.41 591.354 1293.91C582.865 1294.45 582.865 1294.45 574.205 1295C549.259 1290.65 540.925 1278.91 524.284 1260.91C512.36 1241.19 512.36 1241.19 501.369 1219.03C499.358 1215.03 497.346 1211.02 495.274 1206.89C488.891 1194.13 482.604 1181.33 476.32 1168.52C472.159 1160.17 467.993 1151.83 463.82 1143.48C455.514 1126.85 447.307 1110.18 439.158 1093.48C430.747 1076.31 422.01 1059.33 413.029 1042.42C410.851 1038.23 408.673 1034.04 406.429 1029.72C402.286 1021.76 398.056 1013.83 393.724 1005.96C384.257 987.506 380.378 978.139 386.046 957.951C388.74 953.395 391.434 948.838 394.21 944.143C408.458 916.929 408.471 899.242 400.714 869.609C391.864 851.279 391.864 851.279 374.699 838.554C360.905 835.195 360.905 835.195 345.839 833.119C322.334 829.168 311.439 824.764 297.061 806.333C283.307 784.875 277.229 763.379 270.64 739.175C264.201 736.101 264.201 736.101 257.633 732.964C251.481 720.876 245.862 708.536 240.561 696.086C237.66 689.368 234.759 682.651 231.77 675.73C225.114 658.431 225.114 658.431 225.114 646.008C218.676 642.934 218.676 642.934 212.107 639.797C206.378 625.573 202.136 611.142 197.677 596.513C193.836 582.744 193.836 582.744 179.588 577.686C174.419 567.127 169.767 556.335 165.362 545.465C153.856 518.265 141.558 491.995 127.559 465.885C103.099 419.942 80.3435 373.274 57.644 326.523C54.8523 320.783 54.8523 320.783 52.0041 314.927C43.2261 296.87 34.4932 278.795 25.8274 260.688C20.6009 249.797 15.3073 238.933 9.86662 228.138C-0.926759 206.116 -3.24404 201.01 4.80149 176.679C25.726 146.839 61.4235 131.973 95.0403 118.061C99.3327 118.061 103.625 118.061 108.048 118.061C110.194 113.962 112.34 109.862 114.551 105.639C158.169 81.8762 208.389 69.0597 256.007 54.785C263.225 52.5792 270.443 50.3734 277.881 48.1008C307.884 39.0149 337.207 30.3268 368.196 24.8939C376.428 23.4207 384.661 21.9475 393.143 20.4297C502.652 2.00472 616.354 -10.5644 725.899 12.4716ZM433.233 62.1608C424.574 62.8499 415.897 63.3215 407.218 63.7136C302.117 73.0074 191.613 116.376 98.6986 162.704C94.5015 164.772 90.3045 166.84 85.9802 168.971C61.2582 181.346 61.2582 181.346 49.5144 205.017C55.8828 222.322 55.8828 222.322 65.3672 240.343C69.9824 249.603 69.9824 249.603 74.6908 259.049C77.1137 263.765 79.5366 268.481 82.0329 273.34C113.397 269.287 139.091 256.943 167.394 244.225C261.593 203.23 357.164 177.068 459.247 161.539C466.524 160.266 473.801 158.993 481.299 157.681C608.302 136.441 608.302 136.441 647.855 155.328C657.189 157.032 666.574 158.483 675.978 159.792C684.41 160.981 684.41 160.981 693.012 162.194C698.902 163.003 704.791 163.811 710.859 164.645C716.623 165.453 722.387 166.262 728.325 167.095C733.988 167.888 739.651 168.68 745.486 169.497C753.879 170.686 753.879 170.686 762.441 171.899C775.194 173.597 788.003 174.901 800.819 176.096C831.989 181.709 859.43 193.112 888.491 205.017C894.187 207.283 899.883 209.549 905.751 211.883C923.203 218.832 940.605 225.887 958 232.967C963.839 235.313 969.678 237.659 975.694 240.076C1001.68 250.656 1026.84 261.41 1051.21 275.087C1068.74 286.796 1068.74 286.796 1083.6 285.762C1090.34 273.906 1096.95 261.989 1103.52 250.048C1107.22 243.418 1110.91 236.789 1114.72 229.959C1123.29 212.521 1123.29 212.521 1123.46 197.884C1111.16 178.614 1090.5 171.537 1069.78 162.315C1065.13 160.176 1060.47 158.037 1055.68 155.833C972.065 117.959 887.24 86.0988 795.712 71.2834C773.378 67.627 751.229 63.2559 729.049 58.8368C680.103 50.0906 633.436 48.8009 583.631 48.9621C576.261 48.9381 568.892 48.9141 561.3 48.8893C493.38 44.3968 493.38 44.3968 433.233 62.1608ZM223.895 260.917C218.298 262.904 212.7 264.891 206.934 266.937C171.266 280.143 139.7 296.312 108.048 316.818C110.154 332.531 110.154 332.531 121.055 347.873C135.575 352.625 149.844 354.985 164.955 357.505C191.564 362.579 207.337 374.24 225.927 392.516C251.223 428.752 261.475 459 254.584 502.521C249.785 520.651 240.346 536.17 231.618 552.841C234.359 579.781 246.048 601.588 258.446 625.676C261.44 631.541 261.44 631.541 264.495 637.525C270.844 649.945 277.243 662.341 283.648 674.735C290.043 687.177 296.428 699.625 302.8 712.078C308.572 723.349 314.375 734.606 320.18 745.863C329.173 764.02 329.173 764.02 335.677 782.653C348.235 788.353 348.235 788.353 363.318 791.97C419.971 809.033 419.971 809.033 434.681 832.731C453.164 871.027 456.482 903.16 446.24 944.143C442.382 951.065 442.382 951.065 438.445 958.126C431.11 982.152 438.596 992.276 450.279 1014.36C452.198 1018.07 454.117 1021.77 456.095 1025.59C462.325 1037.57 468.71 1049.47 475.1 1061.38C479.373 1069.53 483.634 1077.7 487.882 1085.86C496.203 1101.84 504.573 1117.8 512.982 1133.73C526.732 1160 539.893 1186.48 552.738 1213.16C556.142 1220.19 559.546 1227.21 563.052 1234.44C565.283 1239.08 567.513 1243.71 569.81 1248.49C580.541 1248.49 591.272 1248.49 602.329 1248.49C615.775 1223.21 628.99 1197.82 642.164 1172.4C645.995 1165.2 649.827 1158.01 653.774 1150.59C657.337 1143.67 660.9 1136.74 664.571 1129.6C667.909 1123.23 671.247 1116.85 674.686 1110.29C682.184 1093.69 682.184 1093.69 675.289 1079.34C672.674 1075.72 670.06 1072.1 667.366 1068.37C650.393 1035.95 641.823 996.972 651.665 961.442C666.304 930.315 688.136 905.121 719.395 888.243C731.268 885.922 743.2 883.866 755.166 882.032C779.494 876.461 788.514 872.731 803.588 853.305C813.428 834.423 822.278 815.556 830.603 796.04C841.233 771.753 853.415 748.158 865.322 724.424C870.261 714.412 875.198 704.4 880.133 694.387C896.506 661.401 913.584 628.766 930.929 596.237C949.095 567.123 949.095 567.123 949.895 535.469C948.009 531.466 946.123 527.463 944.179 523.338C934.051 498.57 929.496 480.331 934.017 453.463C954.535 415.995 985.185 390.562 1025.07 372.718C1029.36 372.718 1033.65 372.718 1038.08 372.718C1046.66 356.321 1055.25 339.923 1064.09 323.029C1043.1 312.915 1022.09 302.83 1001.09 292.749C992.189 288.462 992.189 288.462 983.113 284.088C977.349 281.326 971.585 278.563 965.647 275.717C960.367 273.18 955.088 270.643 949.649 268.029C922.765 255.798 896.16 246.685 867.354 239.567C845.158 234.079 823.573 227.796 801.936 220.593C612.447 159.775 406.048 195.74 223.895 260.917Z" fill="#040202"/>
</svg>
