<svg width="2026" height="2184" viewBox="0 0 2026 2184" fill="none" xmlns="http://www.w3.org/2000/svg">
<g clip-path="url(#clip0_22_5)">
<path d="M1172.32 218.56C1186.27 221.153 1200.22 223.728 1214.18 226.289C1384.99 258.077 1384.99 258.077 1427.99 272.585C1430.4 277.042 1432.81 281.499 1435.29 286.091C1452.45 290.746 1452.45 290.746 1472.27 293.688C1478.99 294.82 1485.7 295.952 1492.62 297.118C1497.81 297.936 1502.99 298.754 1508.34 299.597C1508.34 304.054 1508.34 308.511 1508.34 313.104C1514.39 314.784 1520.45 316.464 1526.69 318.195C1555.72 327.783 1582.07 339.845 1609.24 353.2C1614.2 355.546 1619.17 357.892 1624.29 360.309C1660.87 378.212 1660.87 378.212 1669.05 400.894C1673.31 446.04 1663.31 471.966 1638.91 510.632C1632.78 520.666 1626.67 530.707 1620.57 540.758C1617.58 545.648 1614.59 550.538 1611.51 555.576C1600.13 575.188 1591.2 595.658 1581.84 616.15C1570.39 637.976 1564.87 648.232 1541.33 659.254C1521.58 664.266 1521.58 664.266 1503 666.798C1485.54 669.91 1485.54 669.91 1473.41 682.81C1462.95 700.706 1461.8 711.981 1462.23 732.219C1462.26 738.008 1462.28 743.797 1462.31 749.761C1463.48 767.378 1463.48 767.378 1479.12 785.822C1476.49 816.985 1465.53 843.88 1453.1 872.768C1449.77 880.551 1446.45 888.333 1443.02 896.351C1440.47 902.219 1437.92 908.086 1435.29 914.131C1430.47 914.131 1425.65 914.131 1420.68 914.131C1418.75 919.836 1416.83 925.542 1414.84 931.42C1405.65 955.778 1394.59 978.902 1382.67 1002.19C1380.38 1006.71 1378.08 1011.23 1375.72 1015.89C1368.21 1030.66 1360.66 1045.42 1353.11 1060.17C1350.51 1065.26 1347.92 1070.35 1345.24 1075.6C1306.09 1152.35 1265.66 1228.4 1224.22 1304.12C1188.67 1369.36 1155.24 1435.41 1122.45 1501.86C1118.76 1509.3 1115.08 1516.75 1111.28 1524.42C1108.07 1530.96 1104.86 1537.5 1101.55 1544.24C1092 1562.36 1082.31 1579.52 1070.05 1596.2C1065.23 1596.2 1060.41 1596.2 1055.44 1596.2C1055.44 1600.65 1055.44 1605.11 1055.44 1609.7C1044.04 1610.62 1032.62 1611.27 1021.2 1611.81C1011.66 1612.4 1011.66 1612.4 1001.94 1613C973.918 1608.27 964.557 1595.5 945.867 1575.94C932.473 1554.49 932.473 1554.49 920.129 1530.41C917.87 1526.05 915.61 1521.69 913.283 1517.2C906.114 1503.32 899.053 1489.41 891.994 1475.48C887.321 1466.41 882.641 1457.33 877.955 1448.26C868.625 1430.18 859.408 1412.06 850.255 1393.9C840.807 1375.23 830.994 1356.77 820.907 1338.38C818.461 1333.83 816.014 1329.27 813.494 1324.57C808.841 1315.91 804.089 1307.3 799.224 1298.74C788.591 1278.67 784.233 1268.49 790.6 1246.54C793.626 1241.59 796.652 1236.63 799.77 1231.53C815.773 1201.94 815.787 1182.71 807.075 1150.49C797.135 1130.56 797.135 1130.56 777.856 1116.72C762.362 1113.07 762.362 1113.07 745.44 1110.82C719.04 1106.52 706.803 1101.73 690.654 1081.69C675.205 1058.36 668.379 1034.99 660.978 1008.67C653.746 1005.33 653.746 1005.33 646.368 1001.92C639.459 988.778 633.148 975.362 627.193 961.825C623.935 954.521 620.677 947.218 617.32 939.693C609.844 920.884 609.844 920.884 609.844 907.378C602.613 904.035 602.613 904.035 595.235 900.625C588.8 885.159 584.036 869.47 579.027 853.564C574.713 838.593 574.713 838.593 558.71 833.094C552.904 821.614 547.679 809.881 542.731 798.062C529.808 768.488 515.996 739.925 500.272 711.538C472.799 661.585 447.24 610.846 421.745 560.014C418.609 553.774 418.609 553.774 415.41 547.407C405.551 527.774 395.742 508.122 386.009 488.436C380.139 476.594 374.193 464.782 368.082 453.044C355.959 429.102 353.356 423.55 362.393 397.095C385.895 364.652 425.99 348.489 463.748 333.363C468.569 333.363 473.39 333.363 478.357 333.363C480.768 328.906 483.178 324.449 485.662 319.857C534.652 294.021 591.059 280.086 644.542 264.566C652.65 262.167 660.757 259.769 669.111 257.298C702.81 247.419 735.745 237.973 770.551 232.066C779.798 230.464 789.045 228.863 798.572 227.212C921.57 207.18 1049.28 193.514 1172.32 218.56ZM843.599 272.585C833.874 273.334 824.128 273.847 814.38 274.273C696.332 284.378 572.216 331.531 467.857 381.901C463.142 384.15 458.428 386.398 453.571 388.715C425.804 402.17 425.804 402.17 412.614 427.907C419.767 446.721 419.767 446.721 430.419 466.315C435.603 476.382 435.603 476.382 440.891 486.653C443.613 491.781 446.334 496.908 449.138 502.191C484.365 497.785 513.224 484.363 545.014 470.536C650.817 425.964 758.16 397.518 872.818 380.635C880.992 379.251 889.165 377.867 897.586 376.44C1040.23 353.347 1040.23 353.347 1084.66 373.882C1095.14 375.734 1105.68 377.313 1116.25 378.735C1125.72 380.028 1125.72 380.028 1135.38 381.347C1141.99 382.226 1148.61 383.105 1155.42 384.011C1161.9 384.891 1168.37 385.77 1175.04 386.676C1181.4 387.537 1187.76 388.399 1194.32 389.287C1203.74 390.58 1203.74 390.58 1213.36 391.899C1227.68 393.745 1242.07 395.163 1256.47 396.462C1291.48 402.565 1322.3 414.962 1354.94 427.907C1361.33 430.37 1367.73 432.834 1374.32 435.372C1393.93 442.927 1413.47 450.598 1433.01 458.296C1439.57 460.846 1446.13 463.397 1452.88 466.025C1482.07 477.528 1510.33 489.221 1537.7 504.09C1557.39 516.822 1557.39 516.822 1574.08 515.697C1581.65 502.807 1589.08 489.85 1596.45 476.867C1600.61 469.659 1604.76 462.451 1609.04 455.025C1618.65 436.065 1618.65 436.065 1618.85 420.151C1605.04 399.199 1581.83 391.505 1558.56 381.479C1553.33 379.153 1548.11 376.827 1542.72 374.431C1448.81 333.252 1353.53 298.612 1250.73 282.503C1225.64 278.528 1200.77 273.775 1175.86 268.971C1120.88 259.461 1068.46 258.059 1012.52 258.234C1004.25 258.208 995.969 258.182 987.442 258.155C911.156 253.271 911.156 253.271 843.599 272.585ZM608.475 488.685C602.188 490.845 595.901 493.005 589.424 495.23C549.363 509.588 513.908 527.167 478.357 549.463C480.723 566.547 480.723 566.547 492.967 583.228C509.276 588.394 525.302 590.96 542.275 593.701C572.161 599.217 589.877 611.896 610.757 631.766C639.169 671.165 650.684 704.052 642.944 751.37C637.554 771.082 626.953 787.955 617.149 806.081C620.227 835.372 633.357 859.082 647.282 885.272C650.645 891.649 650.645 891.649 654.076 898.154C661.207 911.658 668.395 925.136 675.588 938.611C682.771 952.139 689.942 965.673 697.099 979.213C703.583 991.468 710.101 1003.71 716.62 1015.95C726.722 1035.69 726.722 1035.69 734.027 1055.95C748.132 1062.14 748.132 1062.14 765.072 1066.08C828.704 1084.63 828.704 1084.63 845.226 1110.39C865.986 1152.03 869.712 1186.97 858.209 1231.53C853.875 1239.05 853.875 1239.05 849.454 1246.73C841.215 1272.85 849.623 1283.86 862.746 1307.87C864.901 1311.9 867.057 1315.93 869.277 1320.08C876.275 1333.11 883.447 1346.05 890.624 1358.99C895.423 1367.86 900.209 1376.73 904.98 1385.61C914.327 1402.99 923.727 1420.33 933.173 1437.66C948.616 1466.22 963.399 1495.02 977.826 1524.02C981.649 1531.66 985.472 1539.29 989.411 1547.16C991.915 1552.2 994.42 1557.24 997.001 1562.43C1009.05 1562.43 1021.11 1562.43 1033.52 1562.43C1048.63 1534.94 1063.47 1507.34 1078.27 1479.7C1082.57 1471.88 1086.87 1464.05 1091.31 1455.99C1095.31 1448.46 1099.31 1440.93 1103.43 1433.17C1107.18 1426.24 1110.93 1419.31 1114.79 1412.17C1123.22 1394.13 1123.22 1394.13 1115.47 1378.52C1112.54 1374.58 1109.6 1370.65 1106.57 1366.59C1087.51 1331.34 1077.88 1288.97 1088.94 1250.34C1105.38 1216.49 1129.9 1189.1 1165.01 1170.75C1178.35 1168.23 1191.75 1165.99 1205.19 1164C1232.51 1157.94 1242.64 1153.88 1259.58 1132.76C1270.63 1112.23 1280.57 1091.72 1289.92 1070.5C1301.86 1044.1 1315.54 1018.44 1328.91 992.636C1334.46 981.751 1340.01 970.865 1345.55 959.979C1363.94 924.114 1383.12 888.631 1402.6 853.264C1423.01 821.609 1423.01 821.609 1423.91 787.194C1421.79 782.841 1419.67 778.488 1417.49 774.004C1406.11 747.075 1400.99 727.244 1406.07 698.031C1429.12 657.294 1463.54 629.642 1508.34 610.241C1513.16 610.241 1517.98 610.241 1522.95 610.241C1532.59 592.413 1542.23 574.584 1552.17 556.216C1528.59 545.22 1505 534.254 1481.4 523.294C1471.41 518.633 1471.41 518.633 1461.21 513.877C1454.74 510.874 1448.27 507.87 1441.6 504.776C1435.67 502.018 1429.74 499.259 1423.63 496.417C1393.43 483.119 1363.55 473.211 1331.2 465.471C1306.27 459.504 1282.02 452.673 1257.72 444.842C1044.89 378.717 813.066 417.82 608.475 488.685Z" fill="#040202"/>
<path d="M1083.98 529.148C1083.98 533.592 1083.98 538.036 1083.98 542.614C1088.81 543.031 1093.65 543.447 1098.63 543.876C1151.33 556.997 1201.55 593.223 1237.79 630.141C1245.75 645.947 1245.75 645.947 1252.44 663.805C1255.2 670.115 1257.96 676.425 1260.8 682.925C1287.86 752.38 1284.6 813.637 1251.99 881.36C1210.21 949.438 1149.84 988.442 1069.56 1011.28C964.982 1029.77 889.792 991.416 805.648 939.852C791.426 920.641 780.363 900 769.025 879.256C764.644 871.341 760.263 863.425 755.75 855.27C733.097 795.555 739.2 720.069 768.424 663.779C771.04 659.344 773.655 654.909 776.35 650.34C780.278 643.396 784.205 636.453 788.252 629.299C793.237 623.05 793.237 623.05 798.323 616.675C803.157 616.675 807.992 616.675 812.972 616.675C815.389 610.01 817.807 603.344 820.297 596.477C892.417 528.366 987.57 525.1 1083.98 529.148Z" fill="#DD2A2E"/>
<path d="M1083.98 529.148C1083.98 533.592 1083.98 538.036 1083.98 542.614C1088.81 543.031 1093.65 543.447 1098.63 543.876C1151.33 556.997 1201.55 593.223 1237.79 630.141C1245.75 645.947 1245.75 645.947 1252.44 663.805C1255.2 670.115 1257.96 676.425 1260.8 682.925C1287.86 752.38 1284.6 813.637 1251.99 881.36C1210.21 949.438 1149.84 988.442 1069.56 1011.28C964.982 1029.77 889.792 991.416 805.648 939.852C791.426 920.641 780.363 900 769.025 879.256C764.644 871.341 760.263 863.425 755.75 855.27C733.097 795.555 739.2 720.069 768.424 663.779C771.04 659.344 773.655 654.909 776.35 650.34C780.278 643.396 784.205 636.453 788.252 629.299C793.237 623.05 793.237 623.05 798.323 616.675C803.157 616.675 807.992 616.675 812.972 616.675C815.389 610.01 817.807 603.344 820.297 596.477C892.417 528.366 987.57 525.1 1083.98 529.148ZM842.27 636.874C796.656 694.131 784.365 741.367 790.999 811.928C805.194 866.794 837.559 913.755 890.137 943.691C948.82 971.497 1002.69 983.359 1068.24 968.913C1132.61 949.272 1174.64 919.918 1208.5 865.764C1233.45 819.984 1240.27 769.401 1224.92 720.009C1197.1 653.063 1160.66 612.5 1089.07 582.722C998.664 552.097 909.14 573.764 842.27 636.874Z" fill="#0D0202"/>
<path d="M1086.07 620.26C1135.84 636.498 1155.23 660.814 1179.58 702.052C1202.98 748.913 1196.97 794.684 1180.01 842.626C1163.81 877.264 1139.75 899.269 1105.9 919.953C1079.76 927.939 1065.53 928.092 1039.48 919.953C1024.53 899.153 1021.64 879.373 1019.19 854.857C1018.47 848.354 1017.74 841.85 1017 835.149C1017.35 818.505 1017.35 818.505 1032.1 804.979C1036.97 809.443 1041.85 813.906 1046.86 818.505C1051.73 789.491 1056.6 760.477 1061.62 730.584C1049.45 737.28 1037.27 743.975 1024.73 750.874C1024.12 735.802 1023.7 720.724 1023.34 705.645C1023.08 697.249 1022.83 688.854 1022.56 680.204C1024.86 654.724 1030.06 642.474 1046.86 622.373C1061.62 615.61 1061.62 615.61 1086.07 620.26Z" fill="#A51018"/>
<path d="M974.699 622.626C1005.33 658.541 998.895 701.433 996.838 744.716C984.662 740.239 972.485 735.763 959.94 731.15C964.81 760.248 969.681 789.347 974.699 819.326C982.005 814.85 989.311 810.373 996.838 805.761C997.44 818.615 997.867 831.476 998.222 844.338C998.607 855.079 998.607 855.079 999 866.037C996.563 889.838 990.198 902.074 974.699 921.068C958.095 928.275 958.095 928.275 937.801 927.851C892.644 910.494 866.595 885.018 841.865 846.457C820.182 795.728 821.352 748.888 841.548 698.429C858.917 665.124 882.711 642.681 916.123 622.626C940.574 614.976 951.15 612.681 974.699 622.626Z" fill="#A20F17"/>
<path d="M1274 1197.06C1261.74 1236.38 1241.94 1271.56 1222 1307.87C1218.58 1314.14 1215.16 1320.41 1211.65 1326.87C1203.26 1342.26 1194.85 1357.64 1186.41 1373C1179.19 1373 1171.96 1373 1164.52 1373C1134.98 1343.2 1125.16 1319.91 1126.05 1279.11C1129.47 1254.12 1139.09 1236.06 1157.22 1217.36C1196.16 1189.57 1227.02 1187.73 1274 1197.06Z" fill="#E02829"/>
<path d="M514 624C555.711 632.879 570.318 647.121 594.69 677.714C603.369 693.601 603.005 703.684 602.943 721.357C602.962 726.689 602.981 732.02 603 737.513C602.026 751.571 602.026 751.571 594.69 765C589.849 765 585.007 765 580.019 765C568.97 744.038 557.984 723.049 547.01 702.054C543.861 696.082 540.712 690.109 537.468 683.956C533 675.388 533 675.388 528.442 666.646C525.676 661.372 522.91 656.098 520.06 650.664C514 637.429 514 637.429 514 624Z" fill="#E32E2E"/>
<path d="M1157.82 1218C1160.22 1222.46 1162.62 1226.91 1165.09 1231.5C1157.89 1241.52 1157.89 1241.52 1150.55 1251.75C1147.21 1271.79 1147.21 1271.79 1146 1293.52C1145.46 1300.85 1144.91 1308.19 1144.35 1315.74C1144 1321.36 1143.64 1326.97 1143.27 1332.75C1148.07 1332.75 1152.87 1332.75 1157.82 1332.75C1157.82 1339.43 1157.82 1346.12 1157.82 1353C1179.72 1339.45 1184.22 1333.84 1194.18 1312.5C1201.38 1314.73 1208.58 1316.95 1216 1319.25C1198 1349.32 1198 1349.32 1179.64 1380C1146.59 1350.95 1130.48 1335.82 1126 1293.52C1126.63 1262.42 1139.48 1243.53 1157.82 1218Z" fill="#BA2E30"/>
<path d="M886.273 604C891.133 606.19 895.993 608.38 901 610.636C891.697 620.495 882.326 630.301 872.926 640.085C867.715 645.552 862.504 651.018 857.135 656.65C842.091 670.364 842.091 670.364 820 677C830.314 641.883 855.75 625.404 886.273 604Z" fill="#CA2F31"/>
<path d="M586.532 677C601.298 690.538 601.298 690.538 603 704.712C602.895 710.087 602.791 715.462 602.683 721C602.635 726.375 602.588 731.75 602.539 737.288C601.298 751.462 601.298 751.462 593.915 765C589.043 765 584.17 765 579.149 765C557 726.077 557 726.077 557 710.846C561.873 710.846 566.746 710.846 571.766 710.846C574.203 717.548 576.639 724.249 579.149 731.154C585.25 711.575 586.532 698.07 586.532 677Z" fill="#C63D3D"/>
<path d="M930 840C939.9 840 949.8 840 960 840C957.525 850.725 955.05 861.45 952.5 872.5C942.6 874.645 932.7 876.79 922.5 879C917.812 866.812 917.812 866.812 915 853C919.95 848.71 924.9 844.42 930 840Z" fill="#E0292F"/>
<path d="M1061 840C1079.56 843.218 1079.56 843.218 1098.5 846.5C1100.98 855.08 1103.45 863.66 1106 872.5C1091.94 876.562 1091.94 876.562 1076 879C1071.05 874.71 1066.1 870.42 1061 866C1061 857.42 1061 848.84 1061 840Z" fill="#E02B31"/>
<path d="M1084.33 677C1099.11 679.99 1099.11 679.99 1113 683.833C1110.63 692.853 1108.27 701.873 1105.83 711.167C1094.01 713.422 1082.18 715.677 1070 718C1076.27 684.688 1076.27 684.688 1084.33 677Z" fill="#DE2C32"/>
<path d="M915.5 677C930.969 679.99 930.969 679.99 945.5 683.833C947.975 695.108 950.45 706.383 953 718C940.625 715.745 928.25 713.49 915.5 711.167C911.281 697.927 911.281 697.927 908 683.833C910.475 681.578 912.95 679.323 915.5 677Z" fill="#DE2930"/>
<path d="M1120.67 731C1136.25 737.375 1136.25 737.375 1150 744.6C1147.58 751.332 1145.16 758.064 1142.67 765C1130.57 765 1118.47 765 1106 765C1106 756.024 1106 747.048 1106 737.8C1110.84 735.556 1115.68 733.312 1120.67 731Z" fill="#E0262D"/>
<path d="M514 624C528.72 627.994 543.297 632.448 557.714 637.273C560.119 641.653 562.523 646.033 565 650.545C555.383 648.355 545.766 646.165 535.857 643.909C538.412 648.973 540.966 654.038 543.598 659.256C550.429 677.091 550.429 677.091 543.143 697C538.253 687.336 533.403 677.654 528.571 667.966C525.867 662.576 523.162 657.187 520.375 651.634C514 637.273 514 637.273 514 624Z" fill="#BC3B3A"/>
<path d="M1274 1196.92C1271.6 1206.19 1269.2 1215.45 1266.73 1225C1261.93 1225 1257.13 1225 1252.18 1225C1252.18 1218.05 1252.18 1211.1 1252.18 1203.94C1232.98 1203.94 1213.78 1203.94 1194 1203.94C1224.4 1184.38 1238.7 1191.33 1274 1196.92Z" fill="#A72C2D"/>
<path d="M1142 799.053C1142 807.945 1142 816.838 1142 826C1129.9 823.777 1117.8 821.554 1105.33 819.263C1102.91 812.594 1100.49 805.924 1098 799.053C1120 792.316 1120 792.316 1142 799.053Z" fill="#DF2B2F"/>
<path d="M879 738C890.88 740.228 902.76 742.455 915 744.75C915 751.433 915 758.115 915 765C903.12 765 891.24 765 879 765C879 756.09 879 747.18 879 738Z" fill="#E12A31"/>
<path d="M879 800C893.52 800 908.04 800 923 800C918.16 808.58 913.32 817.16 908.333 826C898.653 826 888.973 826 879 826C879 817.42 879 808.84 879 800Z" fill="#DF2A30"/>
<path d="M894 1353C907 1357 907 1357 907 1357L894 1353Z" fill="#360F0F"/>
<path d="M732 1035C745 1041 745 1041 745 1041L732 1035Z" fill="#4B1315"/>
<path d="M641 1017C652 1022 652 1022 652 1022L641 1017Z" fill="#430E10"/>
<path d="M1200 692C1213 699 1213 699 1213 699L1200 692Z" fill="#671518"/>
<path d="M641 681C652 688 652 688 652 688L641 681Z" fill="#5E1417"/>
<path d="M1330 394C1343 401 1343 401 1343 401L1330 394Z" fill="#100606"/>
<path d="M809 357C822 363 822 363 822 363L809 357Z" fill="#241011"/>
</g>
<defs>
<clipPath id="clip0_22_5">
<rect width="2026" height="2184" fill="white"/>
</clipPath>
</defs>
</svg>
